<mxfile host="app.diagrams.net" modified="2023-06-06T17:33:12.973Z" agent="Mozilla/5.0 (Windows NT 10.0; Win64; x64) AppleWebKit/537.36 (KHTML, like Gecko) Chrome/114.0.0.0 Safari/537.36" version="21.3.7" etag="URqyrJQrW1k1Q3t0Y6DM" type="github">
  <diagram name="PÃ¡gina-1" id="qRXzVIsyfA_riDhHCWzU">
    <mxGraphModel>
      <root>
        <mxCell id="0" />
        <mxCell id="1" parent="0" />
      </root>
    </mxGraphModel>
  </diagram>
</mxfile>
